<mxfile host="app.diagrams.net" modified="2022-01-03T20:40:43.251Z" agent="5.0 (X11)" etag="kTuKJymAr49YgIxyNQAO" version="16.1.2" type="github">
  <diagram id="aHOaXr2bH0qqnL5LwE5M" name="Page-1">
    <mxGraphModel dx="782" dy="418" grid="1" gridSize="10" guides="1" tooltips="1" connect="1" arrows="1" fold="1" page="1" pageScale="1" pageWidth="827" pageHeight="1169" math="0" shadow="0">
      <root>
        <mxCell id="0" />
        <mxCell id="1" parent="0" />
        <mxCell id="TFIkT2JhEFW8JIk-MJFv-18" style="edgeStyle=orthogonalEdgeStyle;rounded=0;orthogonalLoop=1;jettySize=auto;html=1;entryX=0.5;entryY=0;entryDx=0;entryDy=0;entryPerimeter=0;" edge="1" parent="1" source="TFIkT2JhEFW8JIk-MJFv-1" target="TFIkT2JhEFW8JIk-MJFv-2">
          <mxGeometry relative="1" as="geometry" />
        </mxCell>
        <mxCell id="TFIkT2JhEFW8JIk-MJFv-1" value="Начало" style="ellipse;whiteSpace=wrap;html=1;" vertex="1" parent="1">
          <mxGeometry x="340" y="20" width="120" height="80" as="geometry" />
        </mxCell>
        <mxCell id="TFIkT2JhEFW8JIk-MJFv-19" style="edgeStyle=orthogonalEdgeStyle;rounded=0;orthogonalLoop=1;jettySize=auto;html=1;entryX=0.5;entryY=0;entryDx=0;entryDy=0;entryPerimeter=0;" edge="1" parent="1" source="TFIkT2JhEFW8JIk-MJFv-2" target="TFIkT2JhEFW8JIk-MJFv-3">
          <mxGeometry relative="1" as="geometry" />
        </mxCell>
        <mxCell id="TFIkT2JhEFW8JIk-MJFv-2" value="list = int(i) for i in input(Введите числа через пробел).split" style="whiteSpace=wrap;html=1;shape=mxgraph.basic.octagon2;align=center;verticalAlign=middle;dx=15;" vertex="1" parent="1">
          <mxGeometry x="340" y="130" width="120" height="100" as="geometry" />
        </mxCell>
        <mxCell id="TFIkT2JhEFW8JIk-MJFv-20" style="edgeStyle=orthogonalEdgeStyle;rounded=0;orthogonalLoop=1;jettySize=auto;html=1;entryX=0.5;entryY=0;entryDx=0;entryDy=0;" edge="1" parent="1" source="TFIkT2JhEFW8JIk-MJFv-3" target="TFIkT2JhEFW8JIk-MJFv-4">
          <mxGeometry relative="1" as="geometry" />
        </mxCell>
        <mxCell id="TFIkT2JhEFW8JIk-MJFv-3" value="i[-1] for i in sorted(list)" style="whiteSpace=wrap;html=1;shape=mxgraph.basic.octagon2;align=center;verticalAlign=middle;dx=15;" vertex="1" parent="1">
          <mxGeometry x="100" y="260" width="100" height="100" as="geometry" />
        </mxCell>
        <mxCell id="TFIkT2JhEFW8JIk-MJFv-21" style="edgeStyle=orthogonalEdgeStyle;rounded=0;orthogonalLoop=1;jettySize=auto;html=1;entryX=0.5;entryY=0;entryDx=0;entryDy=0;entryPerimeter=0;" edge="1" parent="1" source="TFIkT2JhEFW8JIk-MJFv-4" target="TFIkT2JhEFW8JIk-MJFv-5">
          <mxGeometry relative="1" as="geometry" />
        </mxCell>
        <mxCell id="TFIkT2JhEFW8JIk-MJFv-4" value="first, *maximum = maximum" style="rounded=0;whiteSpace=wrap;html=1;" vertex="1" parent="1">
          <mxGeometry x="90" y="390" width="120" height="60" as="geometry" />
        </mxCell>
        <mxCell id="TFIkT2JhEFW8JIk-MJFv-22" style="edgeStyle=orthogonalEdgeStyle;rounded=0;orthogonalLoop=1;jettySize=auto;html=1;entryX=0.5;entryY=0;entryDx=0;entryDy=0;" edge="1" parent="1" source="TFIkT2JhEFW8JIk-MJFv-5" target="TFIkT2JhEFW8JIk-MJFv-6">
          <mxGeometry relative="1" as="geometry" />
        </mxCell>
        <mxCell id="TFIkT2JhEFW8JIk-MJFv-5" value="max_in_list = i for i, x in enumerate(list) if x = first" style="whiteSpace=wrap;html=1;shape=mxgraph.basic.octagon2;align=center;verticalAlign=middle;dx=15;" vertex="1" parent="1">
          <mxGeometry x="95" y="485" width="110" height="100" as="geometry" />
        </mxCell>
        <mxCell id="TFIkT2JhEFW8JIk-MJFv-23" style="edgeStyle=orthogonalEdgeStyle;rounded=0;orthogonalLoop=1;jettySize=auto;html=1;entryX=0.5;entryY=0;entryDx=0;entryDy=0;" edge="1" parent="1" source="TFIkT2JhEFW8JIk-MJFv-6" target="TFIkT2JhEFW8JIk-MJFv-7">
          <mxGeometry relative="1" as="geometry" />
        </mxCell>
        <mxCell id="TFIkT2JhEFW8JIk-MJFv-6" value="ma, *max_in_list = max_in_list" style="rounded=0;whiteSpace=wrap;html=1;" vertex="1" parent="1">
          <mxGeometry x="90" y="610" width="120" height="60" as="geometry" />
        </mxCell>
        <mxCell id="TFIkT2JhEFW8JIk-MJFv-24" style="edgeStyle=orthogonalEdgeStyle;rounded=0;orthogonalLoop=1;jettySize=auto;html=1;entryX=0;entryY=0.5;entryDx=0;entryDy=0;entryPerimeter=0;" edge="1" parent="1" source="TFIkT2JhEFW8JIk-MJFv-7" target="TFIkT2JhEFW8JIk-MJFv-8">
          <mxGeometry relative="1" as="geometry">
            <Array as="points">
              <mxPoint x="300" y="730" />
              <mxPoint x="300" y="310" />
            </Array>
          </mxGeometry>
        </mxCell>
        <mxCell id="TFIkT2JhEFW8JIk-MJFv-7" value="list_max_free = list.pop(ma)" style="rounded=0;whiteSpace=wrap;html=1;" vertex="1" parent="1">
          <mxGeometry x="90" y="700" width="120" height="60" as="geometry" />
        </mxCell>
        <mxCell id="TFIkT2JhEFW8JIk-MJFv-25" style="edgeStyle=orthogonalEdgeStyle;rounded=0;orthogonalLoop=1;jettySize=auto;html=1;entryX=0.5;entryY=0;entryDx=0;entryDy=0;" edge="1" parent="1" source="TFIkT2JhEFW8JIk-MJFv-8" target="TFIkT2JhEFW8JIk-MJFv-9">
          <mxGeometry relative="1" as="geometry" />
        </mxCell>
        <mxCell id="TFIkT2JhEFW8JIk-MJFv-8" value="i[0] for i in sorted(list)" style="whiteSpace=wrap;html=1;shape=mxgraph.basic.octagon2;align=center;verticalAlign=middle;dx=15;" vertex="1" parent="1">
          <mxGeometry x="590" y="260" width="100" height="100" as="geometry" />
        </mxCell>
        <mxCell id="TFIkT2JhEFW8JIk-MJFv-26" style="edgeStyle=orthogonalEdgeStyle;rounded=0;orthogonalLoop=1;jettySize=auto;html=1;entryX=0.5;entryY=0;entryDx=0;entryDy=0;entryPerimeter=0;" edge="1" parent="1" source="TFIkT2JhEFW8JIk-MJFv-9" target="TFIkT2JhEFW8JIk-MJFv-10">
          <mxGeometry relative="1" as="geometry" />
        </mxCell>
        <mxCell id="TFIkT2JhEFW8JIk-MJFv-9" value="one, *minimum = minimum" style="rounded=0;whiteSpace=wrap;html=1;" vertex="1" parent="1">
          <mxGeometry x="580" y="390" width="120" height="60" as="geometry" />
        </mxCell>
        <mxCell id="TFIkT2JhEFW8JIk-MJFv-27" style="edgeStyle=orthogonalEdgeStyle;rounded=0;orthogonalLoop=1;jettySize=auto;html=1;entryX=0.5;entryY=0;entryDx=0;entryDy=0;" edge="1" parent="1" source="TFIkT2JhEFW8JIk-MJFv-10" target="TFIkT2JhEFW8JIk-MJFv-11">
          <mxGeometry relative="1" as="geometry" />
        </mxCell>
        <mxCell id="TFIkT2JhEFW8JIk-MJFv-10" value="min_in_list = i for i, x in enumerate(list) if x = one" style="whiteSpace=wrap;html=1;shape=mxgraph.basic.octagon2;align=center;verticalAlign=middle;dx=15;" vertex="1" parent="1">
          <mxGeometry x="585" y="485" width="110" height="100" as="geometry" />
        </mxCell>
        <mxCell id="TFIkT2JhEFW8JIk-MJFv-28" style="edgeStyle=orthogonalEdgeStyle;rounded=0;orthogonalLoop=1;jettySize=auto;html=1;entryX=0.5;entryY=0;entryDx=0;entryDy=0;" edge="1" parent="1" source="TFIkT2JhEFW8JIk-MJFv-11" target="TFIkT2JhEFW8JIk-MJFv-12">
          <mxGeometry relative="1" as="geometry" />
        </mxCell>
        <mxCell id="TFIkT2JhEFW8JIk-MJFv-11" value="mi, *min_in_list = min_in_list" style="rounded=0;whiteSpace=wrap;html=1;" vertex="1" parent="1">
          <mxGeometry x="580" y="610" width="120" height="60" as="geometry" />
        </mxCell>
        <mxCell id="TFIkT2JhEFW8JIk-MJFv-29" style="edgeStyle=orthogonalEdgeStyle;rounded=0;orthogonalLoop=1;jettySize=auto;html=1;" edge="1" parent="1" source="TFIkT2JhEFW8JIk-MJFv-12" target="TFIkT2JhEFW8JIk-MJFv-13">
          <mxGeometry relative="1" as="geometry" />
        </mxCell>
        <mxCell id="TFIkT2JhEFW8JIk-MJFv-12" value="list_minmax_free = list.pop(mi)" style="rounded=0;whiteSpace=wrap;html=1;" vertex="1" parent="1">
          <mxGeometry x="580" y="700" width="120" height="60" as="geometry" />
        </mxCell>
        <mxCell id="TFIkT2JhEFW8JIk-MJFv-30" style="edgeStyle=orthogonalEdgeStyle;rounded=0;orthogonalLoop=1;jettySize=auto;html=1;entryX=0.5;entryY=0;entryDx=0;entryDy=0;entryPerimeter=0;" edge="1" parent="1" source="TFIkT2JhEFW8JIk-MJFv-13" target="TFIkT2JhEFW8JIk-MJFv-14">
          <mxGeometry relative="1" as="geometry" />
        </mxCell>
        <mxCell id="TFIkT2JhEFW8JIk-MJFv-13" value="summa = 0" style="rounded=0;whiteSpace=wrap;html=1;" vertex="1" parent="1">
          <mxGeometry x="340" y="700" width="120" height="60" as="geometry" />
        </mxCell>
        <mxCell id="TFIkT2JhEFW8JIk-MJFv-31" style="edgeStyle=orthogonalEdgeStyle;rounded=0;orthogonalLoop=1;jettySize=auto;html=1;" edge="1" parent="1" source="TFIkT2JhEFW8JIk-MJFv-14" target="TFIkT2JhEFW8JIk-MJFv-15">
          <mxGeometry relative="1" as="geometry" />
        </mxCell>
        <mxCell id="TFIkT2JhEFW8JIk-MJFv-14" value="for i in list" style="whiteSpace=wrap;html=1;shape=mxgraph.basic.octagon2;align=center;verticalAlign=middle;dx=15;" vertex="1" parent="1">
          <mxGeometry x="350" y="780" width="100" height="100" as="geometry" />
        </mxCell>
        <mxCell id="TFIkT2JhEFW8JIk-MJFv-32" style="edgeStyle=orthogonalEdgeStyle;rounded=0;orthogonalLoop=1;jettySize=auto;html=1;entryX=0.5;entryY=0;entryDx=0;entryDy=0;" edge="1" parent="1" source="TFIkT2JhEFW8JIk-MJFv-15" target="TFIkT2JhEFW8JIk-MJFv-16">
          <mxGeometry relative="1" as="geometry" />
        </mxCell>
        <mxCell id="TFIkT2JhEFW8JIk-MJFv-34" style="edgeStyle=orthogonalEdgeStyle;rounded=0;orthogonalLoop=1;jettySize=auto;html=1;entryX=1;entryY=0.5;entryDx=0;entryDy=0;entryPerimeter=0;" edge="1" parent="1" source="TFIkT2JhEFW8JIk-MJFv-15" target="TFIkT2JhEFW8JIk-MJFv-2">
          <mxGeometry relative="1" as="geometry">
            <Array as="points">
              <mxPoint x="520" y="930" />
              <mxPoint x="520" y="180" />
            </Array>
          </mxGeometry>
        </mxCell>
        <mxCell id="TFIkT2JhEFW8JIk-MJFv-15" value="summa += 1" style="rounded=0;whiteSpace=wrap;html=1;" vertex="1" parent="1">
          <mxGeometry x="340" y="900" width="120" height="60" as="geometry" />
        </mxCell>
        <mxCell id="TFIkT2JhEFW8JIk-MJFv-33" style="edgeStyle=orthogonalEdgeStyle;rounded=0;orthogonalLoop=1;jettySize=auto;html=1;entryX=0.5;entryY=0;entryDx=0;entryDy=0;" edge="1" parent="1" source="TFIkT2JhEFW8JIk-MJFv-16" target="TFIkT2JhEFW8JIk-MJFv-17">
          <mxGeometry relative="1" as="geometry" />
        </mxCell>
        <mxCell id="TFIkT2JhEFW8JIk-MJFv-16" value="Вывод: Сумма введенных чисел, не учитывая наибольшего и наименьшего, равна summa" style="shape=parallelogram;perimeter=parallelogramPerimeter;whiteSpace=wrap;html=1;fixedSize=1;" vertex="1" parent="1">
          <mxGeometry x="275" y="990" width="250" height="60" as="geometry" />
        </mxCell>
        <mxCell id="TFIkT2JhEFW8JIk-MJFv-17" value="Конец" style="ellipse;whiteSpace=wrap;html=1;" vertex="1" parent="1">
          <mxGeometry x="340" y="1070" width="120" height="80" as="geometry" />
        </mxCell>
      </root>
    </mxGraphModel>
  </diagram>
</mxfile>
